<svg width="315" height="315" viewBox="0 0 315 315" fill="none" xmlns="http://www.w3.org/2000/svg">
<path fill-rule="evenodd" clip-rule="evenodd" d="M131.598 29.5772C55.5484 41.4012 3.30643 111.967 14.5494 187.683C18.3354 213.179 28.0534 235.272 44.4644 255.692C51.0664 263.908 63.5844 276 65.4874 276C66.6404 276 306.999 35.9012 306.999 34.7482C306.999 34.3372 295.234 34.0002 280.854 34.0002H254.709L244.531 44.0162L234.352 54.0322L225.426 48.6582C196.812 31.4322 163.387 24.6352 131.598 29.5772ZM137.499 67.0302C116.707 70.2412 96.0624 80.7852 80.9234 95.9242C49.8164 127.031 42.3224 173.813 62.1294 213.25C64.2704 217.512 66.3554 221 66.7634 221C67.7764 221 205.999 82.7002 205.999 81.6862C205.999 80.1342 185.433 71.1672 176.999 69.0412C167.252 66.5852 147.044 65.5562 137.499 67.0302ZM261.374 117.25L247.275 131.5L249.589 138.668C256.733 160.799 254.814 187.687 244.525 209.623C238.761 221.912 233.133 230.018 224.075 239.076C203.423 259.728 175.381 270.419 146.499 268.652C137.4 268.095 121.834 264.984 117.926 262.942L116.354 262.12L101.975 276.525C94.0664 284.447 87.7994 291.125 88.0474 291.364C88.2964 291.603 92.7744 293.618 97.9994 295.842C140.588 313.97 190.739 309.497 228.999 284.159C285.367 246.829 306.964 175.799 280.982 113.194C278.655 107.587 276.464 103 276.112 103C275.761 103 269.129 109.412 261.374 117.25Z" fill="black"/>
</svg>
